<svg width="25" height="25" viewBox="0 0 25 25" fill="none" xmlns="http://www.w3.org/2000/svg">
<path d="M22.5 7.5H2.5C1.11919 7.5 0 8.61914 0 10V21.25C0 22.6308 1.11919 23.75 2.5 23.75H22.5C23.8808 23.75 25 22.6308 25 21.25V10C25 8.61914 23.8808 7.5 22.5 7.5ZM23.75 21.25C23.75 21.9392 23.1892 22.5 22.5 22.5H2.5C1.81084 22.5 1.25 21.9392 1.25 21.25V10C1.25 9.31084 1.81084 8.75 2.5 8.75H22.5C23.1892 8.75 23.75 9.31084 23.75 10V21.25Z" fill="black"/>
<path d="M19.1428 2.69416C18.559 1.4425 17.0719 0.901243 15.8203 1.48498L5.60156 6.25002H8.55908L16.3487 2.61794C16.9732 2.32668 17.7187 2.59792 18.0099 3.22253L19.422 6.25002H20.8011L19.1428 2.69416Z" fill="black"/>
<path d="M7.5 10H3.75C3.05957 10 2.5 10.5596 2.5 11.25V13.75C2.5 14.4404 3.05957 15 3.75 15H7.5C8.19043 15 8.75 14.4404 8.75 13.75V11.25C8.75 10.5596 8.19043 10 7.5 10ZM7.5 13.75H3.75V11.25H7.5V13.75Z" fill="black"/>
<path d="M15 18.75H2.5V20H15V18.75Z" fill="black"/>
<path d="M20.625 17.5C20.1425 17.5 19.7071 17.6875 19.375 17.9867C19.0429 17.6875 18.6075 17.5 18.125 17.5C17.0896 17.5 16.25 18.3396 16.25 19.375C16.25 20.4104 17.0896 21.25 18.125 21.25C18.6075 21.25 19.0429 21.0625 19.375 20.7633C19.7071 21.0625 20.1425 21.25 20.625 21.25C21.6604 21.25 22.5 20.4104 22.5 19.375C22.5 18.3396 21.6604 17.5 20.625 17.5ZM18.125 20C17.7804 20 17.5 19.7196 17.5 19.375C17.5 19.0304 17.7804 18.75 18.125 18.75C18.4696 18.75 18.75 19.0304 18.75 19.375C18.75 19.7196 18.4696 20 18.125 20ZM20.625 20C20.2804 20 20 19.7196 20 19.375C20 19.0304 20.2804 18.75 20.625 18.75C20.9696 18.75 21.25 19.0304 21.25 19.375C21.25 19.7196 20.9696 20 20.625 20Z" fill="black"/>
</svg>
