<svg width="25" height="25" viewBox="0 0 25 25" fill="none" xmlns="http://www.w3.org/2000/svg">
<path d="M24.9885 5.89384C24.9885 5.79886 24.9656 5.70388 24.9198 5.61418C24.8281 5.43478 24.6504 5.31342 24.4555 5.27649L12.7808 0.0633179C12.5917 -0.021106 12.3682 -0.021106 12.179 0.0633179L0.38973 5.32398C0.160477 5.42423 0.0114626 5.63529 0 5.87273V5.87801C0 5.88328 0 5.88856 0 5.89911V19.1009C0 19.3436 0.149014 19.5652 0.38973 19.6707L12.179 24.9314C12.1848 24.9314 12.1848 24.9314 12.1905 24.9367C12.2077 24.942 12.2249 24.9472 12.2421 24.9578C12.2478 24.9578 12.2536 24.9631 12.265 24.9631C12.2822 24.9683 12.2994 24.9736 12.3166 24.9789C12.3223 24.9789 12.3281 24.9842 12.3338 24.9842C12.351 24.9894 12.3739 24.9894 12.3911 24.9947C12.3968 24.9947 12.4026 24.9947 12.4083 24.9947C12.4312 24.9947 12.4599 25 12.4828 25C12.5057 25 12.5344 25 12.5573 24.9947C12.563 24.9947 12.5688 24.9947 12.5745 24.9947C12.5917 24.9947 12.6146 24.9894 12.6318 24.9842C12.6376 24.9842 12.6433 24.9789 12.649 24.9789C12.6662 24.9736 12.6834 24.9683 12.7006 24.9631C12.7063 24.9631 12.7121 24.9578 12.7235 24.9578C12.7407 24.9525 12.7579 24.9472 12.7751 24.9367C12.7808 24.9367 12.7808 24.9367 12.7866 24.9314L24.6103 19.6549C24.8453 19.5494 25 19.3278 25 19.0851V5.90967C24.9885 5.90439 24.9885 5.89911 24.9885 5.89384ZM12.4771 1.33495L22.7017 5.89911L18.9363 7.58231L8.7116 3.01815L12.4771 1.33495ZM12.4771 10.4633L2.25241 5.89911L7.13549 3.71992L17.3602 8.28409L12.4771 10.4633ZM1.37552 6.91748L11.7893 11.5661V23.3485L1.37552 18.6999V6.91748ZM13.1648 23.3485V11.5661L18.0536 9.3816V12.4631C18.0536 12.8113 18.3631 13.0962 18.7414 13.0962C19.1197 13.0962 19.4292 12.8113 19.4292 12.4631V8.76425L23.613 6.89637V18.6788L13.1648 23.3485Z" fill="black"/>
</svg>
